<svg width="30.000000" height="30.000000" viewBox="0 0 30 30" fill="none" xmlns="http://www.w3.org/2000/svg" xmlns:xlink="http://www.w3.org/1999/xlink">
	<desc>
			Created with Pixso.
	</desc>
	<defs>
		<clipPath id="clip1_109">
			<rect rx="0.000000" width="29.000000" height="29.000000" transform="translate(0.500000 0.500000)" fill="white" fill-opacity="0"/>
		</clipPath>
	</defs>
	<rect rx="0.000000" width="29.000000" height="29.000000" transform="translate(0.500000 0.500000)" fill="#FFFFFF" fill-opacity="0"/>
	<g clip-path="url(#clip1_109)">
		<path d="M3.75 7.5L3.75 25C3.75 25.66 4.01 26.29 4.48 26.76C4.95 27.23 5.58 27.5 6.25 27.5L23.75 27.5C24.41 27.5 25.04 27.23 25.51 26.76C25.98 26.29 26.25 25.66 26.25 25L26.25 7.5L22.5 2.5L7.5 2.5L3.75 7.5Z" stroke="#FFFFFF" stroke-opacity="1.000000" stroke-width="2.000000" stroke-linejoin="round"/>
		<path d="M3.75 7.5L26.25 7.5" stroke="#FFFFFF" stroke-opacity="1.000000" stroke-width="2.000000" stroke-linejoin="round" stroke-linecap="round"/>
		<path d="M20 12.5C20 13.82 19.47 15.09 18.53 16.03C17.59 16.97 16.32 17.5 15 17.5C13.67 17.5 12.4 16.97 11.46 16.03C10.52 15.09 10 13.82 10 12.5" stroke="#FFFFFF" stroke-opacity="1.000000" stroke-width="2.000000" stroke-linejoin="round" stroke-linecap="round"/>
	</g>
</svg>
