<svg width="30.000000" height="30.000000" viewBox="0 0 30 30" fill="none" xmlns="http://www.w3.org/2000/svg" xmlns:xlink="http://www.w3.org/1999/xlink">
	<desc>
			Created with Pixso.
	</desc>
	<defs>
		<clipPath id="clip1_106">
			<rect rx="0.000000" width="29.000000" height="29.000000" transform="translate(0.500000 0.500000)" fill="white" fill-opacity="0"/>
		</clipPath>
	</defs>
	<rect rx="0.000000" width="29.000000" height="29.000000" transform="translate(0.500000 0.500000)" fill="#FFFFFF" fill-opacity="0"/>
	<g clip-path="url(#clip1_106)">
		<path d="M13.75 4.75C8.77 4.75 4.75 8.77 4.75 13.75C4.75 18.72 8.77 22.75 13.75 22.75C18.72 22.75 22.75 18.72 22.75 13.75C22.75 8.77 18.72 4.75 13.75 4.75ZM2.75 13.75C2.75 7.67 7.67 2.75 13.75 2.75C19.82 2.75 24.75 7.67 24.75 13.75C24.75 19.82 19.82 24.75 13.75 24.75C7.67 24.75 2.75 19.82 2.75 13.75Z" fill="#FFFFFF" fill-opacity="1.000000" fill-rule="evenodd"/>
		<path d="M20.1 20.1C20.49 19.71 21.12 19.71 21.51 20.1L26.95 25.54C27.34 25.93 27.34 26.56 26.95 26.95C26.56 27.34 25.93 27.34 25.54 26.95L20.1 21.51C19.71 21.12 19.71 20.49 20.1 20.1Z" fill="#FFFFFF" fill-opacity="1.000000" fill-rule="evenodd"/>
	</g>
</svg>
